<?xml version="1.0" standalone="no"?>
<!DOCTYPE svg PUBLIC "-//W3C//DTD SVG 20010904//EN"
 "http://www.w3.org/TR/2001/REC-SVG-20010904/DTD/svg10.dtd">
<svg version="1.0" xmlns="http://www.w3.org/2000/svg"
 width="512.000000pt" height="512.000000pt" viewBox="0 0 512.000000 512.000000"
 preserveAspectRatio="xMidYMid meet">
<metadata>
Created by potrace 1.14, written by Peter Selinger 2001-2017
</metadata>
<g transform="translate(0.000000,512.000000) scale(0.100000,-0.100000)"
fill="#000000" stroke="none">
<path d="M3464 4019 c-3 -5 -14 -9 -25 -9 -10 0 -19 -5 -19 -11 0 -5 -4 -8 -8
-5 -5 3 -31 -10 -58 -29 -27 -18 -64 -41 -81 -50 -18 -10 -50 -35 -72 -56 -21
-21 -44 -39 -50 -39 -6 0 -11 -4 -11 -10 0 -5 -5 -10 -11 -10 -5 0 -27 -13
-47 -30 -42 -33 -78 -34 -187 -7 -93 24 -385 43 -385 25 0 -4 -10 -4 -22 0
-13 5 -49 6 -80 4 -45 -3 -58 -7 -59 -20 0 -11 -2 -12 -6 -4 -5 13 -39 17 -47
4 -2 -4 -22 -7 -43 -6 -21 1 -43 -2 -48 -7 -6 -4 -20 -8 -30 -8 -25 0 -85 -11
-105 -18 -8 -3 -22 -7 -30 -8 -27 -5 -100 -34 -123 -50 -12 -8 -28 -15 -36
-15 -14 0 -121 -50 -152 -72 -11 -8 -29 -4 -72 15 -31 15 -80 33 -109 42 -29
9 -66 23 -83 31 -45 21 -115 44 -115 37 0 -3 -6 -1 -12 4 -32 26 -218 51 -218
31 0 -6 -3 -8 -6 -5 -8 8 -64 -31 -64 -44 0 -5 7 -9 16 -9 8 0 12 -5 9 -10 -4
-6 -13 -9 -22 -8 -16 3 -46 -68 -38 -90 3 -7 0 -10 -5 -7 -6 3 -10 -5 -10 -19
0 -13 6 -27 13 -29 7 -4 6 -6 -4 -6 -25 -1 -30 -36 -7 -50 10 -6 16 -16 13
-21 -4 -6 -10 -8 -14 -5 -5 2 -11 -12 -15 -33 -10 -61 -8 -72 11 -65 15 5 14
3 -2 -10 -11 -8 -16 -19 -12 -23 4 -5 12 -2 16 5 6 9 10 3 13 -18 2 -17 1 -31
-4 -31 -4 0 -8 5 -8 11 0 5 -4 7 -10 4 -16 -10 -12 -35 6 -35 14 0 14 -2 3
-16 -15 -18 -20 -54 -7 -54 5 0 6 -11 2 -24 -3 -14 0 -29 10 -38 11 -11 12
-18 3 -27 -7 -7 -8 -11 0 -11 15 0 23 -36 11 -48 -6 -6 -6 -16 0 -28 5 -11 8
-32 5 -49 -2 -16 -5 -36 -5 -42 -1 -7 -5 -13 -10 -13 -13 0 -137 -277 -142
-320 -2 -8 -10 -31 -18 -50 -9 -19 -14 -38 -11 -43 2 -4 -1 -15 -9 -24 -12
-15 -11 -15 9 -4 22 11 22 11 11 -16 -7 -15 -18 -35 -25 -44 -7 -8 -15 -32
-18 -53 -2 -21 -7 -47 -10 -57 -7 -21 11 -27 18 -6 2 7 8 8 13 3 5 -5 4 -11
-3 -13 -7 -3 -13 -11 -13 -18 0 -7 -6 -15 -12 -18 -10 -3 -8 -9 4 -24 21 -23
23 -34 6 -31 -7 2 -14 -8 -16 -22 -3 -21 -2 -22 12 -11 14 11 16 11 16 -3 0
-9 -4 -16 -10 -16 -5 0 -10 -10 -10 -21 0 -17 3 -19 14 -10 12 10 13 8 9 -9
-3 -11 -9 -23 -14 -26 -5 -3 -9 -17 -9 -32 1 -24 2 -25 14 -10 7 10 16 15 19
12 3 -4 0 -13 -8 -21 -20 -20 -20 -47 1 -39 9 4 13 2 8 -5 -4 -6 -1 -15 6 -19
9 -6 8 -14 -6 -36 -18 -27 -19 -28 -22 -6 -2 12 -10 22 -18 22 -8 0 -12 5 -9
10 3 5 0 10 -8 10 -8 0 -17 6 -20 13 -10 26 -137 60 -239 63 -61 3 -98 0 -98
-6 0 -5 -13 -10 -30 -10 -16 0 -30 -4 -30 -9 0 -5 -14 -12 -30 -16 -17 -4 -28
-10 -25 -15 3 -5 -4 -11 -15 -15 -11 -4 -18 -10 -15 -15 7 -11 -24 -42 -36
-35 -5 4 -6 -1 -3 -10 4 -10 2 -15 -7 -13 -8 2 -13 -5 -12 -15 1 -13 -4 -17
-14 -13 -11 4 -13 2 -10 -9 4 -8 0 -21 -8 -29 -8 -8 -15 -21 -15 -28 0 -8 -9
-20 -20 -28 -20 -14 -29 -47 -10 -35 18 11 10 -15 -11 -36 -14 -14 -19 -29
-16 -45 2 -13 0 -21 -6 -17 -5 3 -6 -3 -2 -16 4 -13 2 -21 -6 -21 -8 0 -8 -4
1 -15 10 -12 10 -19 2 -27 -7 -7 -12 -19 -12 -27 0 -14 1 -14 10 -1 8 12 10
11 10 -7 0 -13 -4 -23 -10 -23 -15 0 -12 -36 5 -50 12 -10 13 -16 4 -26 -11
-13 -5 -18 15 -15 4 1 5 -10 2 -24 -10 -38 2 -75 22 -68 13 3 14 2 4 -4 -13
-10 -6 -43 9 -43 4 0 13 -10 20 -21 8 -15 8 -19 0 -15 -6 4 -11 3 -11 -3 0 -5
8 -15 18 -20 9 -6 14 -11 10 -11 -4 0 4 -12 18 -27 14 -15 21 -29 15 -31 -16
-5 -13 -22 4 -22 9 0 12 -6 9 -15 -4 -8 1 -17 10 -21 9 -3 16 -15 16 -26 0
-14 5 -18 15 -14 8 3 14 2 12 -3 -4 -15 157 -161 170 -153 3 2 9 0 12 -5 9
-12 71 -43 87 -43 8 0 14 -4 14 -9 0 -10 60 -33 162 -61 96 -26 128 -30 313
-36 166 -5 180 -8 171 -29 -3 -8 -1 -17 4 -20 6 -4 5 -14 -3 -26 -8 -13 -9
-22 -2 -27 14 -10 18 -42 6 -42 -6 0 -9 -12 -9 -28 1 -15 -2 -38 -6 -51 -7
-20 -5 -23 8 -18 10 4 16 1 16 -9 0 -8 -4 -12 -10 -9 -5 3 -10 3 -11 -2 -5
-54 -4 -80 5 -92 8 -11 8 -13 -1 -7 -10 5 -13 -3 -13 -29 0 -22 4 -34 10 -30
6 4 7 11 4 17 -4 7 -2 8 4 4 17 -10 15 -36 -3 -36 -8 0 -15 -4 -15 -10 0 -5 7
-10 15 -10 8 0 15 -7 15 -15 0 -8 -6 -12 -14 -9 -20 8 -15 -26 7 -51 16 -17
16 -20 3 -23 -19 -4 -21 -22 -3 -22 8 0 7 -4 -3 -10 -12 -8 -12 -10 5 -10 19
-1 19 -1 2 -14 -18 -14 -24 -56 -7 -56 6 0 6 -9 0 -26 -13 -33 -12 -43 1 -24
8 11 12 12 16 3 3 -8 25 -13 62 -13 l57 0 1 50 c0 28 -4 50 -9 50 -7 0 -7 5 0
13 13 16 14 115 1 123 -6 3 -5 12 2 21 8 9 9 17 3 21 -11 8 -11 62 0 80 4 7 3
19 -4 27 -6 8 -9 24 -5 35 11 36 14 209 4 216 -6 4 -6 10 -1 17 15 18 22 106
10 113 -7 4 -6 9 3 14 10 7 10 12 1 23 -7 7 -9 17 -5 21 4 4 8 21 9 39 2 18 8
52 14 77 7 30 8 46 1 48 -6 2 -8 16 -4 33 6 31 -12 42 -20 11 -4 -13 -5 -11
-6 6 -1 26 -10 28 -36 8 -11 -8 -25 -12 -32 -9 -7 3 -16 -2 -19 -12 -4 -9 -13
-14 -20 -11 -14 5 -20 -27 -15 -81 1 -13 -2 -23 -6 -23 -4 0 -7 -18 -7 -40 1
-24 -3 -40 -10 -41 -6 0 -22 -2 -36 -4 -23 -4 -158 -8 -170 -5 -3 0 -25 3 -50
5 -82 7 -142 16 -167 26 -13 5 -33 9 -43 9 -25 0 -164 64 -218 101 -24 16 -45
29 -48 29 -9 0 -109 104 -139 145 -17 22 -33 42 -36 45 -3 3 -9 17 -12 32 -4
15 -13 33 -20 40 -7 7 -12 22 -12 33 0 11 -8 32 -18 47 -10 16 -16 28 -13 28
3 0 -4 26 -15 58 -33 91 -20 248 25 307 9 11 16 26 16 32 0 16 61 100 92 129
13 12 41 27 62 34 45 14 166 14 180 0 6 -6 20 -10 32 -10 21 0 53 -22 93 -62
32 -33 36 -44 34 -105 -2 -44 2 -67 13 -77 8 -9 10 -17 5 -21 -6 -3 -8 -12 -5
-20 4 -8 10 -12 15 -9 5 3 6 -2 3 -10 -7 -19 13 -57 29 -53 7 1 11 -6 9 -17
-2 -11 1 -15 8 -11 6 4 19 0 28 -8 9 -8 24 -15 32 -15 8 0 33 -6 55 -12 40
-11 85 -18 137 -19 15 -1 33 -8 42 -16 8 -8 19 -15 24 -15 5 0 31 -18 57 -39
26 -22 54 -37 61 -34 8 3 14 1 14 -4 0 -5 13 -17 30 -26 17 -10 30 -15 30 -12
0 4 12 -3 26 -14 18 -14 31 -18 38 -12 8 7 16 3 25 -11 9 -15 20 -19 46 -16
22 2 31 0 28 -8 -6 -16 29 -27 39 -12 6 10 8 10 8 1 0 -14 45 -29 73 -24 9 1
17 -2 17 -6 0 -11 88 -35 100 -28 4 3 11 -1 14 -7 5 -10 7 -10 12 -1 4 10 13
9 36 -3 23 -12 32 -13 38 -4 6 9 9 9 12 -1 3 -9 30 -13 89 -15 46 -1 92 -5
101 -9 10 -4 51 -5 92 -3 41 3 81 1 90 -4 8 -4 17 -5 20 0 3 5 60 8 127 7 67
-2 139 2 162 7 22 5 71 10 109 13 38 2 75 8 81 13 7 6 33 9 60 8 26 -1 47 1
47 4 0 3 12 6 28 6 15 1 70 14 122 29 52 15 100 28 107 29 7 1 15 5 19 8 3 4
12 4 19 2 7 -3 28 2 45 11 17 9 38 14 45 11 7 -2 16 2 19 10 3 8 16 14 30 14
14 0 31 7 39 15 8 8 17 11 20 8 4 -3 18 2 31 11 14 9 32 16 41 16 8 0 33 11
54 24 21 14 42 22 45 19 3 -3 14 0 23 8 28 22 61 39 77 39 8 0 16 7 20 15 3 8
17 15 31 15 16 0 25 6 25 15 0 9 9 15 25 15 18 0 23 4 19 15 -4 8 -1 15 5 15
6 0 34 18 62 40 33 26 55 37 67 33 15 -6 15 -5 3 10 -7 9 -9 17 -5 17 5 0 20
10 34 23 25 22 82 52 150 77 19 8 52 24 72 37 21 13 42 23 48 23 5 0 10 4 10
9 0 5 17 17 38 26 20 10 64 47 98 82 50 52 66 77 87 138 21 61 24 81 16 110
-5 19 -14 37 -19 40 -6 4 -10 15 -10 26 0 10 -4 19 -10 19 -5 0 -10 15 -10 34
0 76 43 140 132 197 45 29 53 31 109 25 34 -3 73 -12 87 -20 15 -7 39 -19 54
-26 15 -7 24 -18 21 -26 -3 -8 5 -16 21 -20 14 -3 23 -10 20 -15 -3 -5 2 -9
10 -9 8 0 18 -4 21 -10 4 -6 -1 -7 -12 -3 -14 5 -11 -1 9 -25 15 -18 29 -41
33 -52 3 -11 14 -20 23 -21 9 0 12 -3 5 -5 -11 -5 -3 -40 24 -114 3 -8 6 -36
6 -62 1 -33 5 -48 14 -48 7 0 13 -5 13 -11 0 -5 -4 -8 -9 -4 -6 3 -10 -12 -9
-35 0 -22 4 -37 9 -34 5 3 9 1 9 -5 0 -5 -5 -13 -11 -17 -6 -3 -9 -17 -6 -30
2 -13 0 -24 -5 -24 -5 0 -4 -9 2 -20 8 -14 8 -20 0 -20 -7 0 -9 -8 -5 -21 5
-14 4 -19 -4 -15 -7 5 -9 1 -5 -8 3 -9 2 -16 -4 -16 -6 0 -8 -9 -5 -20 3 -11
1 -20 -4 -20 -6 0 -21 -28 -33 -62 -13 -35 -31 -74 -41 -87 -11 -13 -19 -28
-19 -33 0 -6 -38 -56 -85 -113 -120 -147 -202 -211 -380 -299 -111 -55 -126
-61 -180 -71 -92 -18 -89 -18 -102 12 -6 15 -14 43 -18 60 -4 18 -11 33 -16
33 -6 0 -8 4 -5 9 4 5 -4 31 -16 58 -12 26 -20 54 -19 62 2 9 -4 12 -18 8 -12
-3 -19 -2 -16 3 3 4 -2 11 -11 14 -8 3 -12 2 -9 -3 3 -5 1 -12 -5 -16 -5 -3
-10 0 -10 8 0 8 -7 17 -14 20 -10 4 -13 1 -9 -9 4 -10 0 -12 -13 -7 -13 5 -16
3 -11 -9 3 -9 -2 -23 -13 -33 -14 -12 -16 -23 -10 -38 4 -12 14 -21 21 -19 10
2 10 0 1 -11 -9 -11 -9 -21 1 -46 7 -17 17 -28 22 -24 4 5 5 0 2 -10 -4 -10 0
-32 8 -48 9 -16 13 -34 10 -39 -3 -6 -1 -10 4 -10 6 0 11 -13 11 -30 0 -16 5
-30 11 -30 5 0 8 -4 5 -9 -9 -14 4 -41 19 -41 8 0 16 -4 19 -9 3 -5 -2 -8 -12
-7 -10 0 -16 -5 -14 -14 2 -8 9 -40 15 -70 6 -30 18 -61 26 -68 9 -8 10 -11 4
-7 -9 4 -13 -2 -13 -19 0 -16 6 -26 15 -26 11 0 12 -5 5 -24 -5 -14 -5 -47 1
-82 5 -33 9 -76 9 -96 -1 -21 4 -38 10 -38 6 0 8 -5 5 -10 -4 -6 -8 -26 -10
-45 -2 -27 0 -32 12 -28 13 5 13 2 5 -14 -14 -25 -12 -126 1 -135 7 -4 6 -12
-2 -22 -10 -12 -11 -19 -2 -29 6 -8 8 -17 4 -20 -11 -11 -10 -57 2 -57 6 0 7
-3 0 -8 -5 -4 -10 -33 -10 -64 l-1 -58 72 0 c73 0 92 10 74 40 -5 8 -4 22 1
31 6 12 5 19 -3 21 -8 3 -9 12 0 36 8 24 8 32 -1 32 -8 0 -8 3 0 11 7 7 8 22
4 38 -4 14 -6 70 -4 124 2 66 0 96 -7 92 -6 -4 -10 4 -10 19 0 14 5 28 10 31
6 4 7 12 3 18 -4 6 -8 43 -10 82 -2 38 -6 77 -9 85 -4 8 -8 35 -10 59 -2 25
-6 52 -10 60 -4 9 -6 24 -5 33 1 10 -3 18 -10 18 -10 0 -10 3 -1 12 16 16 15
28 -1 28 -9 0 -12 11 -9 35 2 19 -1 41 -7 49 -15 17 3 32 43 34 16 1 35 7 42
13 8 6 14 9 14 6 0 -12 139 39 151 56 3 5 9 8 13 8 18 -3 173 85 242 138 99
74 200 181 280 296 30 43 114 224 120 260 2 11 8 38 14 60 6 22 12 49 14 60 2
11 7 28 11 38 5 11 2 29 -6 44 -11 21 -11 27 -1 30 6 3 9 10 5 16 -4 6 -8 36
-9 67 -2 76 -14 144 -26 151 -6 4 -7 12 -4 18 4 6 0 23 -8 38 -8 16 -17 39
-20 53 -3 14 -17 37 -31 53 -14 15 -22 27 -18 27 4 0 3 4 -3 8 -6 4 -19 22
-28 40 -9 17 -21 32 -26 32 -6 0 -10 6 -10 13 0 20 -135 83 -200 93 -8 2 -32
5 -52 8 -46 8 -141 -12 -132 -26 4 -7 2 -8 -5 -4 -7 5 -20 -1 -31 -14 -10 -12
-20 -21 -22 -20 -10 4 -37 -13 -32 -21 3 -5 -2 -6 -11 -3 -11 5 -18 0 -22 -14
-2 -11 -14 -23 -25 -25 -12 -3 -17 -10 -13 -17 4 -6 -2 -21 -13 -33 -31 -33
-46 -78 -30 -89 8 -5 9 -8 2 -8 -18 0 -27 -32 -12 -41 11 -7 11 -12 0 -30 -8
-11 -9 -18 -3 -14 6 3 11 -1 11 -10 0 -9 -4 -14 -9 -11 -5 4 -4 -5 2 -19 7
-14 19 -25 27 -25 12 0 13 -2 1 -9 -17 -11 -6 -31 17 -32 15 0 14 -1 -2 -8
-18 -7 -18 -8 0 -25 17 -18 17 -19 -6 -36 -15 -11 -19 -20 -11 -24 6 -4 11
-13 11 -19 0 -8 -3 -8 -9 1 -6 10 -16 4 -40 -23 -17 -20 -28 -41 -25 -47 4 -7
2 -8 -4 -4 -14 9 -73 -34 -65 -47 3 -5 0 -7 -8 -5 -8 3 -30 -4 -49 -15 l-34
-21 28 49 c16 28 35 58 44 67 8 10 12 24 9 33 -4 8 -3 15 2 15 5 0 14 21 22
48 7 26 19 58 26 72 7 14 13 35 13 47 0 12 6 23 13 26 9 3 9 8 1 16 -7 8 -8
31 -3 69 16 117 16 166 1 190 -13 20 -13 25 -1 33 12 8 12 10 0 18 -7 5 -13
22 -13 37 0 16 -4 34 -9 39 -4 6 -11 35 -14 65 -4 34 -14 63 -26 76 -10 11
-19 28 -19 36 0 20 -66 149 -83 163 -7 6 -17 21 -23 35 -7 14 -36 55 -66 90
-29 36 -59 76 -66 90 -16 31 -65 86 -83 93 -10 4 -10 6 -1 6 17 1 15 26 -4 45
-14 15 -14 16 0 16 9 0 16 5 16 10 0 6 -5 10 -11 10 -6 0 -9 6 -6 14 3 8 1 17
-6 20 -9 3 -8 8 3 15 13 9 13 11 -2 11 -10 0 -18 5 -18 10 0 6 5 10 10 10 6 0
10 11 10 25 0 14 -4 25 -10 25 -5 0 -7 14 -5 31 2 20 -1 32 -11 36 -10 4 -11
9 -5 17 11 14 -2 41 -20 41 -7 0 -14 6 -17 13 -2 7 2 10 12 6 9 -4 16 -1 16 6
0 6 -10 14 -22 18 -17 4 -19 7 -6 11 13 5 14 11 4 41 -6 19 -21 40 -34 46 -20
10 -21 13 -8 24 14 10 12 18 -10 58 -46 86 -85 134 -98 123 -16 -14 -29 -2
-16 14 7 9 3 17 -16 30 -15 9 -23 12 -20 6 4 -6 2 -11 -3 -11 -6 0 -11 3 -11
8 0 10 -49 12 -56 1z m136 -69 c0 -5 -5 -10 -11 -10 -5 0 -7 5 -4 10 3 6 8 10
11 10 2 0 4 -4 4 -10z m-82 -108 c6 -9 12 -22 12 -29 0 -8 8 -26 17 -40 18
-27 19 -30 21 -70 1 -13 8 -23 16 -23 12 0 31 -67 27 -95 0 -6 8 -28 19 -50
15 -29 17 -42 9 -52 -9 -9 -8 -17 1 -28 7 -8 10 -27 7 -43 -3 -15 0 -40 7 -57
7 -18 10 -46 6 -72 -7 -43 -6 -43 70 -122 43 -44 80 -89 83 -100 3 -13 1 -19
-5 -15 -6 4 -5 -3 1 -15 7 -11 21 -21 32 -21 16 0 19 -4 14 -20 -4 -13 -1 -22
9 -26 9 -3 16 -13 16 -21 0 -13 2 -13 16 -2 15 12 16 11 10 -8 -5 -16 -2 -25
12 -34 11 -7 18 -19 15 -26 -3 -7 2 -13 12 -13 9 0 14 -4 11 -8 -3 -5 1 -20 9
-35 8 -15 11 -27 7 -27 -4 0 1 -5 11 -11 9 -5 17 -19 17 -29 0 -10 5 -22 10
-25 6 -4 10 -12 9 -18 -3 -16 12 -50 25 -59 7 -5 6 -8 -3 -8 -9 0 -10 -4 -3
-12 5 -7 13 -34 16 -60 4 -27 10 -48 14 -48 4 0 6 -26 6 -58 -5 -178 -8 -228
-14 -237 -4 -5 -15 -37 -25 -70 -9 -33 -21 -65 -27 -72 -5 -7 -6 -18 -2 -24 4
-8 3 -9 -4 -5 -7 4 -12 2 -12 -5 0 -28 -115 -181 -190 -252 -44 -42 -83 -77
-86 -77 -2 0 -37 -22 -77 -49 -76 -51 -279 -161 -300 -161 -7 0 -34 -12 -62
-25 -27 -14 -58 -25 -68 -25 -10 0 -37 -9 -59 -20 -23 -11 -52 -20 -65 -20
-14 0 -21 -4 -18 -10 3 -6 -1 -7 -9 -4 -8 3 -37 -1 -63 -9 -26 -9 -68 -19 -93
-22 -25 -4 -49 -10 -54 -13 -5 -3 -28 -7 -50 -8 -23 -2 -48 -5 -56 -7 -15 -4
-64 -11 -145 -23 -22 -3 -62 -5 -90 -5 -27 0 -57 -3 -65 -6 -23 -9 -391 -10
-424 -1 -16 4 -56 9 -88 10 -32 1 -58 5 -58 8 0 3 -17 6 -38 7 -44 3 -118 20
-187 42 -27 8 -58 16 -67 17 -10 1 -23 6 -30 11 -7 6 -31 16 -52 23 -22 7 -72
30 -111 51 -40 21 -75 35 -79 32 -3 -4 -6 -1 -6 5 0 6 -19 24 -42 41 -48 33
-162 145 -181 177 -7 12 -25 45 -41 75 -16 30 -32 56 -36 59 -4 3 -11 25 -15
50 -4 25 -14 62 -21 84 -8 22 -12 48 -8 58 3 10 1 18 -3 18 -5 0 -7 15 -5 34
2 18 -1 37 -7 40 -8 5 -8 13 0 28 8 15 8 22 0 28 -8 4 -9 14 -2 31 5 14 7 37
4 52 -3 15 -1 27 4 27 6 0 9 21 9 47 -1 29 4 48 12 51 6 2 10 7 8 11 -8 13 17
106 35 133 11 14 17 33 13 41 -3 8 2 21 10 30 9 9 16 22 16 31 0 13 71 157
123 249 18 32 16 89 -3 112 -5 6 -5 17 0 24 5 8 2 33 -6 60 -7 25 -11 53 -9
62 3 9 -1 19 -9 22 -15 6 -15 13 0 80 3 15 2 27 -3 27 -5 0 -9 23 -9 50 0 28
3 50 7 50 3 0 5 23 4 50 -1 28 1 53 6 55 4 3 5 20 2 38 -4 24 0 37 16 51 19
17 23 18 39 3 9 -8 38 -18 65 -22 26 -4 47 -12 47 -17 0 -6 9 -8 20 -5 11 3
20 1 20 -3 0 -5 8 -9 18 -9 24 0 92 -24 92 -33 0 -5 11 -8 25 -8 14 0 25 -4
25 -8 0 -12 68 -34 81 -26 8 4 9 3 5 -4 -4 -7 -1 -12 8 -12 9 0 16 -5 16 -11
0 -6 7 -8 16 -5 9 3 21 3 27 -1 16 -9 69 -4 84 9 7 5 17 7 23 3 5 -3 13 0 16
8 5 14 148 86 179 91 8 1 21 8 27 14 7 7 22 12 33 12 12 0 35 7 51 15 25 12
93 25 157 28 9 1 17 4 17 7 0 3 21 7 48 9 26 2 57 4 70 4 12 1 22 5 22 9 0 5
17 6 37 3 21 -3 43 1 52 8 9 8 12 8 8 1 -11 -18 24 -22 76 -9 26 6 49 10 51 8
2 -3 26 -6 53 -9 135 -11 243 -32 243 -46 0 -6 11 -7 25 -4 19 5 23 3 19 -9
-6 -15 11 -22 19 -7 2 4 2 2 1 -5 -5 -19 15 -26 31 -13 10 9 15 9 15 1 0 -7 8
-8 23 -2 12 4 28 6 35 4 6 -3 12 1 12 9 1 7 15 22 33 34 18 11 31 26 30 32 -2
6 3 9 11 6 8 -3 16 4 19 16 3 12 10 19 16 16 5 -4 15 3 21 14 6 11 17 20 24
20 7 0 21 9 31 20 10 11 24 20 32 20 7 0 13 5 13 10 0 6 7 10 15 10 8 0 15 4
15 9 0 5 21 20 47 33 25 13 48 31 51 41 5 21 39 15 60 -11z m262 -316 c0 -3
-4 -8 -10 -11 -5 -3 -10 -1 -10 4 0 6 5 11 10 11 6 0 10 -2 10 -4z m-2760
-336 c0 -5 -2 -10 -4 -10 -3 0 -8 5 -11 10 -3 6 -1 10 4 10 6 0 11 -4 11 -10z
m0 -324 c0 -3 -4 -8 -10 -11 -5 -3 -10 -1 -10 4 0 6 5 11 10 11 6 0 10 -2 10
-4z m-150 -356 c0 -5 -5 -10 -11 -10 -5 0 -7 5 -4 10 3 6 8 10 11 10 2 0 4 -4
4 -10z m-30 -139 c0 -6 -4 -12 -8 -15 -5 -3 -9 1 -9 9 0 8 4 15 9 15 4 0 8 -4
8 -9z m26 -507 c-3 -9 -6 -23 -7 -32 0 -14 -2 -13 -9 3 -13 31 -11 45 6 45 11
0 14 -5 10 -16z m34 -57 c0 -8 -9 -13 -22 -11 -34 4 -35 5 -8 14 14 4 26 8 28
9 1 1 2 -5 2 -12z m0 -42 c9 5 11 4 6 -3 -4 -7 -4 -18 1 -24 4 -7 8 -19 9 -26
3 -19 61 -102 68 -97 3 3 4 2 1 -2 -3 -3 0 -12 7 -20 12 -15 10 -15 -72 7 -29
7 -52 48 -53 96 -1 19 -6 34 -11 34 -6 0 -5 4 2 9 7 4 12 12 11 17 -3 20 2 28
10 15 5 -8 14 -10 21 -6z m80 -106 c0 -5 -9 -4 -19 3 -11 7 -17 16 -14 20 5
10 33 -10 33 -23z m60 -73 c0 -3 -4 -8 -10 -11 -5 -3 -10 -1 -10 4 0 6 5 11
10 11 6 0 10 -2 10 -4z m300 -550 c0 -3 -4 -8 -10 -11 -5 -3 -10 -1 -10 4 0 6
5 11 10 11 6 0 10 -2 10 -4z m2655 -186 c3 -5 -1 -10 -9 -10 -9 0 -16 5 -16
10 0 6 4 10 9 10 6 0 13 -4 16 -10z"/>
<path d="M3153 2856 c-44 -44 -76 -106 -61 -123 7 -9 7 -13 -1 -13 -6 0 -9
-12 -7 -27 5 -42 17 -64 29 -56 5 3 7 1 4 -5 -10 -15 3 -42 19 -42 8 0 17 -7
20 -15 4 -10 13 -13 24 -10 11 4 17 1 16 -7 0 -7 4 -13 9 -13 6 0 9 3 8 8 -5
12 4 8 22 -10 13 -12 19 -13 25 -4 4 7 11 12 15 11 13 -4 66 41 60 51 -4 5 0
11 7 14 7 3 14 15 14 28 3 34 8 51 19 60 7 4 7 10 0 15 -6 4 -11 20 -12 35 -3
75 -55 127 -131 131 -41 3 -51 0 -79 -28z"/>
<path d="M2088 2731 c-41 -44 -68 -103 -50 -109 8 -2 10 -8 4 -15 -23 -29 -23
-55 2 -82 14 -15 23 -32 20 -37 -3 -5 3 -12 15 -15 12 -3 21 -12 21 -19 0 -17
5 -17 33 -3 18 9 20 9 10 -2 -21 -22 -15 -31 17 -24 22 5 30 3 30 -7 0 -9 3
-9 8 -2 4 6 22 17 40 25 19 8 35 24 38 37 4 12 10 22 14 22 11 0 30 104 20
108 -5 2 -6 10 -3 18 10 27 -25 98 -61 122 -52 36 -113 29 -158 -17z"/>
<path d="M2715 2390 c-3 -5 -12 -7 -19 -4 -7 3 -28 -8 -45 -24 -23 -21 -33
-40 -37 -71 -4 -32 -2 -42 8 -39 7 3 22 -9 33 -26 11 -17 27 -31 34 -31 8 0
17 -10 22 -22 6 -17 5 -21 -7 -16 -7 3 -14 1 -14 -4 0 -16 -63 -79 -108 -108
-46 -31 -89 -34 -151 -14 -38 13 -70 44 -71 69 0 9 -10 24 -21 34 -18 15 -23
16 -30 5 -8 -11 -12 -10 -24 5 -8 11 -18 16 -22 11 -5 -4 -3 -10 4 -12 7 -2 9
-11 6 -20 -5 -13 -9 -11 -25 8 l-20 24 7 -28 c4 -21 2 -28 -7 -24 -7 2 -11 11
-10 18 2 8 0 10 -4 6 -11 -10 -14 -38 -4 -32 4 3 11 -2 14 -11 8 -22 8 -24 -6
-22 -7 2 -13 -3 -12 -9 3 -44 4 -45 25 -40 17 4 19 3 10 -6 -15 -15 -14 -27 4
-27 9 0 12 -6 9 -15 -4 -9 3 -19 20 -26 14 -7 26 -17 26 -22 0 -5 6 -4 14 2
11 9 15 7 19 -9 3 -11 11 -21 19 -23 7 -2 29 -9 48 -16 19 -6 36 -7 38 -3 1 5
27 7 58 4 31 -3 65 0 77 6 12 5 38 17 57 26 45 21 65 35 102 69 30 27 97 40
82 15 -4 -7 -3 -8 5 -4 6 4 17 3 24 -2 15 -13 125 -50 152 -51 67 -4 106 -1
126 9 16 9 23 9 29 1 5 -9 11 -7 20 4 7 9 29 23 48 31 26 11 33 19 29 33 -3
14 -1 18 9 14 16 -6 66 45 58 59 -4 6 0 15 7 20 11 7 11 11 2 15 -18 7 -16 24
1 17 10 -4 15 5 18 30 3 31 2 34 -15 24 -15 -8 -18 -7 -15 3 3 8 -1 25 -8 38
-7 14 -11 29 -8 35 3 6 -2 2 -10 -8 -16 -20 -52 -26 -74 -12 -7 4 -12 1 -12
-8 0 -9 -4 -16 -10 -16 -5 0 -10 -10 -10 -23 0 -36 -20 -70 -57 -94 -45 -30
-97 -34 -155 -12 -27 9 -48 15 -48 13 0 -2 -8 4 -18 14 -10 9 -33 29 -51 45
l-33 28 27 26 c17 18 25 35 22 49 -3 16 0 21 10 17 7 -3 10 -10 6 -16 -3 -5
-1 -7 4 -4 14 9 9 70 -6 75 -6 2 -11 10 -11 18 0 8 -6 14 -14 14 -8 0 -16 6
-19 14 -6 15 -113 20 -122 6z"/>
<path d="M3315 2230 c-3 -5 -1 -10 4 -10 6 0 11 5 11 10 0 6 -2 10 -4 10 -3 0
-8 -4 -11 -10z"/>
<path d="M820 1929 c0 -5 5 -7 10 -4 6 3 10 8 10 11 0 2 -4 4 -10 4 -5 0 -10
-5 -10 -11z"/>
</g>
</svg>
